<svg width="24" height="24" viewBox="0 0 24 24" fill="none" xmlns="http://www.w3.org/2000/svg">
<path fill-rule="evenodd" clip-rule="evenodd" d="M11.608 1.81873C11.8647 1.74922 12.1353 1.74922 12.392 1.81873C12.6859 1.8983 12.9389 2.09573 13.2276 2.32096L13.2893 2.36908L20.0716 7.64421L20.1248 7.68557C20.527 7.99814 20.8052 8.21438 21.01 8.49129C21.1908 8.73577 21.3255 9.0112 21.4075 9.30403C21.5003 9.63571 21.5002 9.98808 21.5 10.4974L21.5 10.5648V17.8212C21.5 18.363 21.5 18.8001 21.4711 19.1541C21.4413 19.5185 21.3784 19.8386 21.2275 20.1347C20.9879 20.6051 20.6054 20.9876 20.135 21.2273C19.8389 21.3782 19.5188 21.4411 19.1543 21.4708C18.8004 21.4998 18.3633 21.4997 17.8214 21.4997H6.17861C5.63673 21.4997 5.19965 21.4998 4.84572 21.4708C4.48129 21.4411 4.1612 21.3782 3.86505 21.2273C3.39465 20.9876 3.0122 20.6051 2.77251 20.1347C2.62162 19.8386 2.55871 19.5185 2.52894 19.1541C2.50002 18.8001 2.50002 18.363 2.50003 17.8211L2.50003 10.5648L2.50001 10.4974C2.49984 9.98807 2.49972 9.6357 2.59256 9.30403C2.67453 9.0112 2.80924 8.73577 2.99006 8.49129C3.19487 8.21438 3.47309 7.99814 3.87526 7.68556L3.92845 7.6442L10.7108 2.36908L10.7725 2.32095C11.0611 2.09573 11.3141 1.8983 11.608 1.81873ZM8 16.4998C7.72386 16.4998 7.5 16.7236 7.5 16.9998C7.5 17.2759 7.72386 17.4998 8 17.4998H16C16.2761 17.4998 16.5 17.2759 16.5 16.9998C16.5 16.7236 16.2761 16.4998 16 16.4998H8Z" fill="#E4541B"/>
</svg>
