<svg width="24" height="24" viewBox="0 0 24 24" fill="none" xmlns="http://www.w3.org/2000/svg">
<path fill-rule="evenodd" clip-rule="evenodd" d="M12 1.5C7.85786 1.5 4.5 4.85786 4.5 9C4.5 11.8788 6.12199 14.3779 8.5 15.6348V16.0178C8.5 16.4686 8.49999 16.8323 8.52019 17.1283C8.54096 17.4327 8.58474 17.7019 8.6903 17.9567C8.94404 18.5693 9.43072 19.056 10.0433 19.3097C10.2981 19.4153 10.5673 19.459 10.8717 19.4798C11.1677 19.5 11.5314 19.5 11.9822 19.5H12.0178C12.4686 19.5 12.8323 19.5 13.1283 19.4798C13.4327 19.459 13.7019 19.4153 13.9567 19.3097C14.5693 19.056 15.056 18.5693 15.3097 17.9567C15.4153 17.7019 15.459 17.4327 15.4798 17.1283C15.5 16.8323 15.5 16.4686 15.5 16.0178V15.6348C17.878 14.3779 19.5 11.8788 19.5 9C19.5 4.85786 16.1421 1.5 12 1.5ZM5.5 9C5.5 5.41015 8.41015 2.5 12 2.5C15.5899 2.5 18.5 5.41015 18.5 9C18.5 11.5922 16.9826 13.831 14.7855 14.8747C14.6111 14.9576 14.5 15.1333 14.5 15.3264V16C14.5 16.4728 14.4997 16.8023 14.4821 17.0603C14.4648 17.3137 14.4325 17.4613 14.3858 17.574C14.2336 17.9416 13.9416 18.2336 13.574 18.3858C13.4613 18.4325 13.3137 18.4648 13.0603 18.4821C12.8023 18.4997 12.4728 18.5 12 18.5C11.5272 18.5 11.1977 18.4997 10.9397 18.4821C10.6863 18.4648 10.5387 18.4325 10.426 18.3858C10.0584 18.2336 9.76642 17.9416 9.61418 17.574C9.5675 17.4613 9.53516 17.3137 9.51787 17.0603C9.50027 16.8023 9.5 16.4728 9.5 16V15.3264C9.5 15.1333 9.3889 14.9576 9.21455 14.8747C7.01736 13.831 5.5 11.5922 5.5 9ZM9.5 21.5C9.22386 21.5 9 21.7239 9 22C9 22.2761 9.22386 22.5 9.5 22.5H14.5C14.7761 22.5 15 22.2761 15 22C15 21.7239 14.7761 21.5 14.5 21.5H9.5ZM10 9.5C9.72386 9.5 9.5 9.72386 9.5 10C9.5 10.2761 9.72386 10.5 10 10.5H11.5L11.5 16C11.5 16.2761 11.7239 16.5 12 16.5C12.2761 16.5 12.5 16.2761 12.5 16V10.5H14C14.2761 10.5 14.5 10.2761 14.5 10C14.5 9.72386 14.2761 9.5 14 9.5H10Z" fill="#072253"/>
</svg>
