<svg width="16" height="16" viewBox="0 0 16 16" fill="none" xmlns="http://www.w3.org/2000/svg">
<path fill-rule="evenodd" clip-rule="evenodd" d="M8 1C4.13906 1 1 4.13906 1 8C1 11.8609 4.13906 15 8 15C11.8609 15 15 11.8609 15 8C15 4.13906 11.8609 1 8 1Z" fill="#00BA69"/>
<path d="M6.68556 10.9305C5.81348 10.1116 4.94675 9.28509 4.07201 8.46614C3.976 8.37598 3.976 8.22571 4.07201 8.13555L5.07742 7.19138C5.17343 7.10122 5.33344 7.10122 5.42945 7.19138L6.86691 8.54127L10.5632 5.06762C10.6619 4.97746 10.8192 4.97746 10.9179 5.06762L11.926 6.0143C12.0247 6.10696 12.0247 6.25472 11.926 6.34488L7.03759 10.9305C6.94158 11.0232 6.78423 11.0232 6.68556 10.9305Z" fill="white"/>
</svg>
